PathFileType	4	(X/Y/Z)	53_2_21_p1_0-299_filt_butterworth.trc
DataRate	CameraRate	NumFrames	NumMarkers	Units	OrigDataRate	OrigDataStartFrame	OrigNumFrames
47.0	47.0	5	27	m	47.0	74	299
Frame#	Time	RHip			RKnee			RAnkle			RBigToe			RSmallToe			RHeel			LHip			LKnee			LAnkle			LBigToe			LSmallToe			LHeel			Neck			Head			Nose			RShoulder			RElbow			RWrist			RThumb			RIndex			RPinky			LShoulder			LElbow			LWrist			LThumb			LIndex			LPinky			
		X1	Y1	Z1	X2	Y2	Z2	X3	Y3	Z3	X4	Y4	Z4	X5	Y5	Z5	X6	Y6	Z6	X7	Y7	Z7	X8	Y8	Z8	X9	Y9	Z9	X10	Y10	Z10	X11	Y11	Z11	X12	Y12	Z12	X13	Y13	Z13	X14	Y14	Z14	X15	Y15	Z15	X16	Y16	Z16	X17	Y17	Z17	X18	Y18	Z18	X19	Y19	Z19	X20	Y20	Z20	X21	Y21	Z21	X22	Y22	Z22	X23	Y23	Z23	X24	Y24	Z24	X25	Y25	Z25	X26	Y26	Z26	X27	Y27	Z27	
74	1.574468085106383	0.3858165035460614	0.7043940644647415	0.7221549952096381	0.32320440187037947	0.6830577011414908	1.1328701869175162	0.3257644975546823	0.8082556819140201	1.5491932848526884	0.2761192004855642	0.6155861788962915	1.5253215288192548	0.31487501442491367	0.630789746012833	1.5390874310886897	0.3408594331575988	0.926260850321441	1.6328492260288554	0.18427445537218629	0.718031803533302	0.7037271855127651	0.17749719316057191	0.7139034186726584	1.1376706483628851	0.16559282560881844	0.8471412739279602	1.5501466489280165	0.16220124956542833	0.6318108125321455	1.516125682955926	0.1315284919957294	0.666366608337187	1.5337854349151925	0.17085480341213694	0.9250061877652032	1.6128493268205397	0.29215730648037025	0.45457637349898633	0.23675119497802943	0.28915507170787447	0.3382909261864566	0.027016712321455753	0.26654547698759107	0.279205071924263	0.14886036252783733	0.42617630813049034	0.5024671804675821	0.2990773370869868	0.6246478002330649	0.4792827057035409	0.4923246719612752	0.5596288262857194	0.2256829409676423	0.6214631746438471	0.49035777030489386	0.14464150683022672	0.6801839453083209	0.5037975626750737	0.1345658779692055	0.6875666087496	0.5544715929058484	0.12375493338012003	0.70198850884212	0.13741330992042214	0.5254566629139695	0.29242437400012483	0.04151453342943144	0.5604632595365229	0.5226869836346469	0.02952201718514807	0.3093933364938005	0.6575564918948823	0.04269210530594154	0.1654621399689949	0.6951259096009625	0.026172599093481522	0.15599113878658577	0.7165810635252611	0.01508388317273276	0.22695972876508158	0.7403570929265849
75	1.5957446808510638	0.38568738062661645	0.6952985687141238	0.7205837007144815	0.3244653535161337	0.683408089067644	1.131893981350765	0.3254988981621892	0.8090422528408625	1.5481649044061159	0.2796275333028026	0.6166120717490139	1.5262583628360094	0.3165623409997613	0.6275341387662087	1.5398606949468738	0.34169875928258814	0.9278438559507349	1.6361351186063864	0.19027238098334082	0.7063228093085409	0.7034361459650007	0.17775327070329294	0.7131787217073599	1.137285782380674	0.16576081302845144	0.847228513758852	1.5481206918315709	0.16213978457604222	0.6330738086390566	1.5162989753472051	0.13177649851779086	0.665502403092008	1.5336563204059603	0.16966401710426285	0.9238528436721075	1.612642170004738	0.3015812728245503	0.4726061859531464	0.22700022995470212	0.2957188949198305	0.34066107509637156	0.018539986364837405	0.27057312819119755	0.29376631238621276	0.14340182214048597	0.43086207827955575	0.5064554431389338	0.2900367850532941	0.6165132086160435	0.46608941628170913	0.472398193382485	0.517739767109536	0.1758827834957113	0.5579309983563843	0.4361555453074955	0.09454522323833162	0.5966692363362378	0.4434165180618181	0.08407633204837248	0.6084005014489309	0.49105910433920574	0.08103454139047032	0.6259586947965944	0.14283915125541619	0.5298826031739253	0.2788932682369655	0.04244392649729189	0.527708409277862	0.49843157858429693	0.04389154164089943	0.26354339220928663	0.5993533428356034	0.06976669566559746	0.11958681853346849	0.6317764396313797	0.051735435151081935	0.10567180718033979	0.6500056512067431	0.038108273802996966	0.1430985885226595	0.6730892021542263
76	1.6170212765957446	0.3857349406587032	0.6919599637769356	0.7185283579172385	0.3243984542792732	0.6844387897229826	1.131841493443563	0.32495524930310804	0.8089856362083739	1.545771054594168	0.28675009067632734	0.6173091057585414	1.5263631682746615	0.3243012797597645	0.6308930181698179	1.5410943681225744	0.34059841051437934	0.9264830410107543	1.6320393155332005	0.1958556817311343	0.6917330168402639	0.7023736580465116	0.17811565046511885	0.7094880928622905	1.1372743273049921	0.16589675681786675	0.8470236147477335	1.5447896748476722	0.16382262300847228	0.6326040999773886	1.5150764167760369	0.13315294469568512	0.6609252875977879	1.5320176536371173	0.16843194336756118	0.9222151116838603	1.6115637890880925	0.30850899451811586	0.4883992874612594	0.2191385631904636	0.29993870025841457	0.3439404606538352	0.00839976526605835	0.27551392258939794	0.30216457502730754	0.13922794395289823	0.4350254596231152	0.5090244464064949	0.2769419076793445	0.6067917479725327	0.4514262956777012	0.4488362813307158	0.47763972333008603	0.1320841844756888	0.4949993929454796	0.3873958706258831	0.0623107602541588	0.513529573059778	0.3860229047511763	0.04659524848911668	0.5257734544257583	0.43051013702295327	0.05227634367838911	0.5455701940618569	0.14885788822945759	0.530603613788963	0.2634607947882251	0.048108643571745005	0.5052949911422089	0.46497080880005215	0.05924799723672362	0.2228331157079564	0.536481046008397	0.09973400914890124	0.08532305138074431	0.5683327802639698	0.08267826677778954	0.06027302406465523	0.5757619995148826	0.05743430331145312	0.09371115446214225	0.600916825062084
77	1.6382978723404256	0.385805576353208	0.6936099889218938	0.715785685426609	0.3240960102655508	0.6855538600462527	1.132013290101007	0.3244720559722185	0.8084813978209235	1.5438393166883064	0.29364699628839813	0.6185434253198142	1.526573519938174	0.33433598433456113	0.6432827838620109	1.5431321144258698	0.33733720288803737	0.9227895672872053	1.6246604492663494	0.19991980243482954	0.6776262922308876	0.698638251381666	0.1780172780136736	0.7095946558296923	1.1361041756688426	0.166015398118514	0.8464770520746534	1.542820752795277	0.16702541432310528	0.6298014247780401	1.5142895198568311	0.13545908823989877	0.6543028526091895	1.5299541356096404	0.16773725743758996	0.9207281034219201	1.6097969507299967	0.31256071058322865	0.4971400130018715	0.21395473045831254	0.30278848505534306	0.34852092337871465	-0.0016052590999956545	0.2810641373410719	0.3074980891896839	0.13542731889257154	0.43678569239222353	0.5089167668501011	0.2623211382358593	0.5971081530573917	0.4370897096179556	0.4231687755766109	0.4466691435303449	0.10627444183911994	0.44482026400093055	0.3539130314063752	0.05506123180265206	0.4487414828647245	0.34791865825884954	0.034552708208131076	0.4588506314499165	0.3861709587274695	0.03405557994512052	0.4798998308022925	0.15258514748047303	0.5276540541015089	0.2516668439592194	0.054452040695429374	0.4914769751455966	0.4336099903441373	0.07757498437184579	0.18885879378614273	0.4833213276899433	0.12344937663308021	0.057143015013938245	0.507887152684374	0.11014179159732428	0.025080440227391025	0.5079015869734246	0.07379637504635554	0.061742051919468105	0.5367206371280991
78	1.6595744680851063	0.38557293307083057	0.6926036284360864	0.7106397229077178	0.3249035132242432	0.6860851640756715	1.131887490037947	0.32405248986258184	0.8067014875590238	1.5416362770747136	0.2982590373550288	0.6200144832839868	1.5268759300283088	0.34207729144909826	0.6571841518349054	1.5458001262017271	0.33237012552219297	0.9160007258764872	1.6188143223260971	0.20328228546265564	0.6579879398607393	0.6913954975032615	0.17796871679139903	0.7198002776705071	1.1359965388966076	0.16569992552292537	0.8473671543963767	1.5429743330338477	0.1690065212922486	0.6290883344535868	1.5163965533772779	0.13753538876959828	0.6499774861918931	1.528762442556481	0.16738169311936832	0.9195262730615251	1.6081440787225283	0.31484178405733443	0.49929640094079736	0.21049194635570695	0.30589906159743374	0.35348829710500795	-0.01049889782695767	0.2860873586079979	0.312356457155297	0.1306376734045238	0.4364749064758071	0.5064685982483862	0.2486700085170806	0.584528785887433	0.43477439994274863	0.39907922155325504	0.4251691389120351	0.10617178870429758	0.4071375436147321	0.33305281701191936	0.053206912784867125	0.4028929001476674	0.3271414892195961	0.031085460727926086	0.411625405872251	0.3583102008068342	0.02053865871067281	0.4320918323837769	0.15459638213371715	0.5244462623700993	0.2441958192630629	0.05787739605415621	0.47415813333580514	0.411461665886464	0.09525597765485017	0.16402653851769317	0.44199130595406133	0.1402972706493427	0.03675257757635534	0.4523699187237528	0.1309460260298498	0.0021867612151827255	0.4524937715354631	0.09123094115536777	0.032128110203125275	0.48233418196031264
